<svg width="24" height="24" viewBox="0 0 24 24" fill="none" xmlns="http://www.w3.org/2000/svg">
	<path fill-rule="evenodd" clip-rule="evenodd"
		d="M12 0C5.39597 0 0 5.39597 0 12C0 18.604 5.36913 24 12 24C18.6309 24 24 18.6309 24 12C24 5.36913 18.604 0 12 0ZM5.79866 20.3221C7.08725 18.1208 9.47651 16.698 12.0537 16.698C14.6309 16.698 16.9933 18.0671 18.2819 20.2685C16.5369 21.5839 14.3624 22.3893 12.0268 22.3893C9.66443 22.3893 7.51678 21.6107 5.79866 20.3221ZM19.4899 19.1946C17.8792 16.6443 15.1141 15.1141 12.0537 15.1141C9.02013 15.1141 6.1745 16.7248 4.5906 19.2483C2.7651 17.3691 1.63758 14.8188 1.63758 12C1.61074 6.28188 6.28188 1.61074 12 1.61074C17.7181 1.61074 22.3893 6.28188 22.3893 12C22.3893 14.7919 21.2886 17.3154 19.4899 19.1946ZM7.73154 9.20805C7.73154 6.84564 9.66443 4.9396 12 4.9396C14.3356 4.9396 16.2685 6.84564 16.2685 9.20805C16.2685 11.5705 14.3624 13.4765 12 13.4765C9.63758 13.4765 7.73154 11.5436 7.73154 9.20805ZM9.34228 9.18121C9.34228 10.6577 10.5503 11.8389 12 11.8389C13.4497 11.8389 14.6577 10.6577 14.6577 9.18121C14.6577 7.7047 13.4765 6.52349 12 6.52349C10.5235 6.52349 9.34228 7.73154 9.34228 9.18121Z"
		fill="#516173" />
	<mask id="mask0_2491_26977" style="mask-type:alpha" maskUnits="userSpaceOnUse" x="0" y="0"
		width="24" height="24">
		<path fill-rule="evenodd" clip-rule="evenodd"
			d="M12 0C5.39597 0 0 5.39597 0 12C0 18.604 5.36913 24 12 24C18.6309 24 24 18.6309 24 12C24 5.36913 18.604 0 12 0ZM5.79866 20.3221C7.08725 18.1208 9.47651 16.698 12.0537 16.698C14.6309 16.698 16.9933 18.0671 18.2819 20.2685C16.5369 21.5839 14.3624 22.3893 12.0268 22.3893C9.66443 22.3893 7.51678 21.6107 5.79866 20.3221ZM19.4899 19.1946C17.8792 16.6443 15.1141 15.1141 12.0537 15.1141C9.02013 15.1141 6.1745 16.7248 4.5906 19.2483C2.7651 17.3691 1.63758 14.8188 1.63758 12C1.61074 6.28188 6.28188 1.61074 12 1.61074C17.7181 1.61074 22.3893 6.28188 22.3893 12C22.3893 14.7919 21.2886 17.3154 19.4899 19.1946ZM7.73154 9.20805C7.73154 6.84564 9.66443 4.9396 12 4.9396C14.3356 4.9396 16.2685 6.84564 16.2685 9.20805C16.2685 11.5705 14.3624 13.4765 12 13.4765C9.63758 13.4765 7.73154 11.5436 7.73154 9.20805ZM9.34228 9.18121C9.34228 10.6577 10.5503 11.8389 12 11.8389C13.4497 11.8389 14.6577 10.6577 14.6577 9.18121C14.6577 7.7047 13.4765 6.52349 12 6.52349C10.5235 6.52349 9.34228 7.73154 9.34228 9.18121Z"
			fill="white" />
	</mask>
	<g mask="url(#mask0_2491_26977)">
	</g>
</svg>
	