<svg width="768" h145ight="418" viewBox="310.6 145 768 418" fill="none" xmlns="http://www.w3.org/2000/svg">
	<mask id="mask0_6_659" style="mask-type:alpha" maskUnits="userSpaceOnUse" x="0" y="0"
		width="1377" height="563">
		<ellipse cx="688.289" cy="281.5" rx="688.289" ry="281.5" fill="#D9D9D9" />
	</mask>
	<g mask="url(#mask0_6_659)">
		<path d="M310.578 595H1078.58V144H310.578V595Z" fill="url(#paint0_linear_6_659)" />
		<g style="mix-blend-mode:hard-light" opacity="0.801642">
			<path fill-rule="evenodd" clip-rule="evenodd"
				d="M976.087 474.192C914.166 391.802 940.344 291.137 1034.56 249.351L1284.16 138.645L1362.45 242.805C1424.37 325.195 1398.19 425.859 1303.97 467.646L1054.37 578.352L976.087 474.192Z"
				fill="#12CF9F" />
		</g>
		<g style="mix-blend-mode:hard-light" opacity="0.747652">
			<path fill-rule="evenodd" clip-rule="evenodd"
				d="M950.815 662.462C868.957 626.156 846.211 538.694 900.011 467.109L1106.61 192.212L1282.76 270.338C1364.62 306.644 1387.36 394.107 1333.56 465.692L1126.96 740.589L950.815 662.462Z"
				fill="#AE77D4" />
		</g>
		<path opacity="0.9" fill-rule="evenodd" clip-rule="evenodd"
			d="M370.105 421.22C451.41 458.749 472.596 546.352 417.427 616.886L145.706 964.283L-87.8895 856.459C-169.194 818.931 -190.381 731.328 -135.211 660.793L136.51 313.396L370.105 421.22Z"
			fill="#FF9F00" />
		<g style="mix-blend-mode:hard-light" opacity="0.747652">
			<path fill-rule="evenodd" clip-rule="evenodd"
				d="M23.1881 623.343C-47.825 568.79 -47.8251 480.343 23.188 425.79L287.86 222.468L401.193 309.531C472.207 364.083 472.207 452.53 401.194 507.083L136.521 710.406L23.1881 623.343Z"
				fill="#F7B39C" />
		</g>
	</g>
	<defs>
		<linearGradient id="paint0_linear_6_659" x1="447.592" y1="194.388" x2="730.007"
			y2="-252.814" gradientUnits="userSpaceOnUse">
			<stop stop-color="#10174A" />
			<stop offset="1" stop-color="#729FD4" />
			<stop offset="1" stop-color="#729FD4" />
		</linearGradient>
	</defs>
</svg>