<svg width="36" height="36" viewBox="0 0 36 36" fill="none" xmlns="http://www.w3.org/2000/svg">
	<path
		d="M10.2284 30.9746L12.3194 28.8836C12.6888 28.5142 13.2359 28.3868 13.7305 28.5549C15.0926 29.0179 16.529 29.257 17.9998 29.257C25.3215 29.257 31.257 23.3215 31.257 15.9998C31.257 8.6781 25.3215 2.74268 17.9998 2.74268C10.6781 2.74268 4.74268 8.6781 4.74268 15.9998C4.74268 20.0772 6.59327 23.8476 9.71475 26.3499C10.0394 26.6102 10.2284 27.0038 10.2284 27.4199V30.9746Z"
		fill="#EFF1F4" />
	<circle cx="16.2859" cy="15.4285" r="13.1429" fill="white" />
	<path fill-rule="evenodd" clip-rule="evenodd"
		d="M7.48571 34.2857C7.48571 35.5075 8.96294 36.1194 9.82689 35.2555L13.6743 31.4081C15.0702 31.7992 16.5221 32 18 32C26.8366 32 34 24.8366 34 16C34 7.16344 26.8366 0 18 0C9.16344 0 2 7.16344 2 16C2 20.6906 4.03277 25.0496 7.48571 28.0607V34.2857ZM12.3196 28.8838L10.2286 30.9748V27.4201C10.2286 27.004 10.0396 26.6103 9.71493 26.35C6.59345 23.8478 4.74286 20.0773 4.74286 16C4.74286 8.67828 10.6783 2.74286 18 2.74286C25.3217 2.74286 31.2571 8.67828 31.2571 16C31.2571 23.3217 25.3217 29.2571 18 29.2571C16.5292 29.2571 15.0928 29.0181 13.7307 28.5551C13.2361 28.387 12.6889 28.5144 12.3196 28.8838Z"
		fill="url(#paint0_linear_6_3872)" />
	<path fill-rule="evenodd" clip-rule="evenodd"
		d="M16.5168 18.2952V19.6569H19.482V18.7161C19.482 18.4025 19.5067 18.1343 19.5561 17.9115C19.6056 17.6887 19.6838 17.4906 19.7909 17.3173C19.898 17.144 20.0339 16.9748 20.1986 16.8097C20.3634 16.6447 20.561 16.4549 20.7917 16.2403C21.1541 15.8937 21.4959 15.5636 21.8171 15.25C22.1384 14.9364 22.4226 14.6063 22.6697 14.2596C22.9168 13.913 23.1144 13.5334 23.2627 13.1208C23.411 12.7081 23.4851 12.2295 23.4851 11.6848C23.4851 10.909 23.3533 10.2199 23.0897 9.61748C22.8262 9.01502 22.4596 8.51161 21.9901 8.10722C21.5206 7.70284 20.9688 7.39336 20.3345 7.17879C19.7003 6.96422 19.0125 6.85693 18.2712 6.85693C17.4805 6.85693 16.7556 6.96834 16.0967 7.19117C15.4377 7.41399 14.857 7.73997 14.3546 8.16912C13.8522 8.59826 13.4444 9.12231 13.1314 9.74127C12.8184 10.3602 12.6125 11.0658 12.5137 11.8581L15.6766 12.1057C15.7425 11.4289 15.9978 10.8554 16.4426 10.385C16.8874 9.91457 17.4558 9.67937 18.1476 9.67937C18.7901 9.67937 19.3214 9.88156 19.7415 10.2859C20.1616 10.6903 20.3716 11.2144 20.3716 11.8581C20.3716 12.5183 20.1657 13.0547 19.7538 13.4674L17.8511 15.3985C17.604 15.6626 17.394 15.8896 17.221 16.0794C17.048 16.2692 16.908 16.4672 16.8009 16.6736C16.6939 16.8799 16.6197 17.111 16.5785 17.3668C16.5374 17.6226 16.5168 17.9321 16.5168 18.2952ZM16.7086 22.0317C16.3505 22.3958 16.1714 22.8312 16.1714 23.3378C16.1714 23.5911 16.221 23.8286 16.32 24.0502C16.419 24.2719 16.5524 24.4618 16.72 24.6202C16.8876 24.7785 17.0819 24.9051 17.3029 25.0001C17.5238 25.0951 17.7562 25.1426 18 25.1426C18.5029 25.1426 18.9333 24.9605 19.2914 24.5964C19.6495 24.2323 19.8286 23.7969 19.8286 23.2903C19.8286 22.7837 19.6457 22.3562 19.28 22.0079C18.9143 21.6596 18.4876 21.4855 18 21.4855C17.4971 21.4855 17.0667 21.6675 16.7086 22.0317Z"
		fill="url(#paint1_linear_6_3872)" />
	<defs>
		<linearGradient id="paint0_linear_6_3872" x1="-13.4543" y1="18.4421" x2="21.8653"
			y2="49.0559" gradientUnits="userSpaceOnUse">
			<stop stop-color="#0F1749" />
			<stop offset="1" stop-color="#6F9DDC" />
		</linearGradient>
		<linearGradient id="paint1_linear_6_3872" x1="7.21504" y1="16.3137" x2="23.0904"
			y2="25.5141" gradientUnits="userSpaceOnUse">
			<stop stop-color="#0F1749" />
			<stop offset="1" stop-color="#6F9DDC" />
		</linearGradient>
	</defs>
</svg>
	