<svg xmlns="http://www.w3.org/2000/svg" width="46" height="36" viewBox="0 0 46 36" fill="none">
	<g clip-path="url(#clip0_2265_34454)">
		<path fill-rule="evenodd" clip-rule="evenodd"
			d="M40.6468 15.9198L38.8669 10.879L28.6879 5.99219L23.6819 7.78449L27.5894 21.5348L40.6468 15.9198Z"
			fill="white" />
		<path fill-rule="evenodd" clip-rule="evenodd"
			d="M33.4419 22.6012C33.1777 23.9594 33.6644 25.3457 34.7212 26.2278C34.8185 26.3118 34.749 26.4659 34.6239 26.4379C33.275 26.1718 31.8983 26.6619 31.0223 27.7261C30.9389 27.8241 30.7859 27.7541 30.8137 27.6281C31.0779 26.2698 30.5912 24.8836 29.5344 24.0015C29.437 23.9174 29.5066 23.7634 29.6317 23.7914C30.9806 24.0575 32.3572 23.5674 33.2333 22.5032C33.3167 22.4052 33.4697 22.4752 33.4419 22.6012Z"
			fill="white" />
		<path fill-rule="evenodd" clip-rule="evenodd"
			d="M41.0226 9.08789L44.791 10.8942L33.4718 34.8522L29.7034 33.0459L41.0226 9.08789Z"
			fill="#E8F4FC" />
		<path
			d="M45.5968 9.82976L25.2388 0.0701316C24.8912 -0.0978964 24.474 0.0561293 24.3072 0.406188L24.0151 1.03629L13.0436 24.2382L12.7515 24.8683C12.5847 25.2183 12.7376 25.6384 13.0853 25.8064L33.4571 35.566C33.8047 35.7341 34.2219 35.5801 34.3888 35.23L34.6808 34.5999L45.6524 11.398L45.9444 10.7679C46.1113 10.4179 45.9583 9.99779 45.6107 9.82976H45.5968ZM34.5417 34.5299L34.2497 35.16C34.1246 35.44 33.7769 35.552 33.5127 35.426L13.1409 25.6664C12.8628 25.5404 12.7515 25.1903 12.8767 24.9243L13.1687 24.2942L24.1264 1.0923L24.4184 0.462197C24.5436 0.18215 24.8912 0.0701316 25.1554 0.196153L45.5272 9.95578C45.8054 10.0818 45.9166 10.4319 45.7914 10.6979L45.4994 11.328L34.5278 34.5299H34.5417Z"
			fill="url(#paint0_linear_2265_34454)" />
		<path
			d="M25.1974 1.44141L14.1702 24.7693L33.4017 33.9828L33.4713 34.0108L33.5408 34.0388L44.568 10.711L25.1974 1.44141ZM33.4713 33.8568L14.3648 24.6993L25.2669 1.63744L44.3733 10.795L33.4713 33.8568Z"
			fill="url(#paint1_linear_2265_34454)" />
		<path fill-rule="evenodd" clip-rule="evenodd"
			d="M41.2305 15.698L39.4505 10.6572C39.3949 10.5032 39.2837 10.3771 39.1307 10.2931L28.9518 5.40631C28.7988 5.3363 28.6319 5.3223 28.4651 5.37831L23.459 7.17061C23.1531 7.28263 22.9723 7.61868 23.0696 7.94074L26.9632 21.649C27.005 21.8311 27.1301 22.0131 27.3109 22.0971C27.4917 22.1811 27.7002 22.1671 27.8671 22.0971L40.8828 16.4962C41.1888 16.3701 41.3417 16.0201 41.2305 15.698ZM37.6706 10.9932L34.9312 13.1496L34.514 9.48099L37.6706 10.9932ZM33.6797 13.2756L30.0642 11.5393L33.2486 9.495L33.6797 13.2756ZM32.4699 8.50083L29.3828 10.4892L29.3133 6.98858L32.4699 8.50083ZM28.0618 6.86256L28.1174 10.3491L24.9608 7.98274L28.0479 6.87656L28.0618 6.86256ZM24.7661 9.39698L28.1035 11.9174L27.3109 18.3725L24.7661 9.39698ZM28.4094 19.7307L29.2855 12.5755L33.3738 14.5358L28.4094 19.7307ZM30.1476 19.7307L34.6253 15.0399L38.6718 16.0621L30.1476 19.7307ZM35.8212 14.0458L38.5467 11.9034L39.6452 15.0259L35.8212 14.0598V14.0458Z"
			fill="url(#paint2_linear_2265_34454)" />
		<path
			d="M41.2307 15.6976L41.3002 15.6696L41.2307 15.6976ZM39.4507 10.6568L39.5203 10.6288L39.4507 10.6568ZM28.4653 5.39192L28.4374 5.32191L28.4653 5.39192ZM23.4592 7.18422L23.4314 7.11421L23.4592 7.18422ZM23.0698 7.95435H23.1394V7.94034H23.0698V7.95435ZM26.9634 21.6766H27.033V21.6626H26.9634V21.6766ZM27.8673 22.1247L27.8395 22.0547L27.8673 22.1247ZM40.883 16.5238L40.8552 16.4538L40.883 16.5238ZM37.6708 11.0349L37.7125 11.0909L37.796 11.0209L37.6986 10.9789L37.6708 11.0489V11.0349ZM34.9314 13.1912H34.8619L34.8758 13.3172L34.9731 13.2472L34.9314 13.1912ZM34.5142 9.52261L34.542 9.4526L34.4308 9.39659V9.52261H34.5142ZM33.6799 13.3172L33.6521 13.3873L33.7633 13.4433V13.3172H33.6799ZM30.0644 11.581L30.0227 11.5249L29.9114 11.595L30.0227 11.651L30.0505 11.581H30.0644ZM33.2488 9.53661H33.3183V9.41059L33.221 9.4666L33.2627 9.52261L33.2488 9.53661ZM32.4701 8.54244L32.5118 8.59845L32.6231 8.52844L32.5118 8.47243L32.484 8.54244H32.4701ZM29.383 10.5308H29.3135V10.6568L29.4247 10.5868L29.383 10.5308ZM29.3135 7.03019L29.3413 6.96018L29.244 6.91817V7.03019H29.3135ZM28.062 6.90417H28.1315V6.80616L28.0342 6.83416L28.062 6.90417ZM28.1176 10.3908L28.0759 10.4468L28.1871 10.5308V10.3908H28.1176ZM24.961 8.02436L24.9332 7.95435L24.8081 7.99635L24.9054 8.08037L24.9471 8.02436H24.961ZM24.7663 9.43859L24.8081 9.38258L24.6412 9.25656L24.6968 9.4526H24.7663V9.43859ZM28.1037 11.931H28.1732V11.903L28.1454 11.875L28.1037 11.931ZM27.3111 18.3861H27.2416H27.3806H27.3111ZM28.4096 19.7303H28.3401L28.3123 19.9263L28.4513 19.7723L28.3957 19.7303H28.4096ZM29.2857 12.5751L29.3135 12.5051L29.2301 12.4631V12.5611H29.2857V12.5751ZM33.374 14.5354L33.4296 14.5775L33.4991 14.5074L33.4157 14.4654L33.3879 14.5354H33.374ZM30.1478 19.7303L30.0922 19.6883L30.1757 19.8003L30.1478 19.7303ZM34.6255 15.0395V14.9695H34.5977L34.5698 14.9975L34.6255 15.0395ZM38.672 16.0617L38.6998 16.1317L38.8945 16.0477L38.6998 15.9917V16.0617H38.672ZM35.8075 14.0454L35.7657 13.9894L35.6545 14.0734L35.7935 14.1014V14.0314L35.8075 14.0454ZM38.5469 11.903L38.6164 11.875L38.5886 11.777L38.5191 11.833L38.5608 11.889L38.5469 11.903ZM39.6454 15.0255V15.0955L39.7567 15.1235L39.715 14.9975L39.6454 15.0255ZM41.2863 15.6836L39.5064 10.6428L39.3812 10.6848L41.1611 15.7256L41.2863 15.6836ZM39.5064 10.6428C39.4368 10.4748 39.3117 10.3347 39.1448 10.2507L39.0892 10.3768C39.2283 10.4468 39.3256 10.5588 39.3812 10.6988L39.5064 10.6428ZM39.1448 10.2507L28.9659 5.36391L28.9102 5.48994L39.0892 10.3768L39.1448 10.2507ZM28.9659 5.36391C28.799 5.2799 28.6043 5.2799 28.4374 5.33591L28.4792 5.47593C28.6182 5.43393 28.7712 5.43393 28.9102 5.50394L28.9659 5.37792V5.36391ZM28.4374 5.33591L23.4314 7.12821L23.4731 7.25423L28.4792 5.46193L28.4374 5.33591ZM23.4314 7.12821C23.0838 7.25423 22.8891 7.63229 23.0003 7.98235L23.1394 7.94034C23.0559 7.6603 23.2089 7.36625 23.487 7.25423L23.4453 7.12821H23.4314ZM23.0003 7.98235L26.8939 21.6906L27.033 21.6486L23.1394 7.94034L23.0003 7.98235ZM26.8939 21.6766C26.9356 21.8867 27.0747 22.0687 27.2833 22.1667L27.3389 22.0407C27.172 21.9707 27.0608 21.8167 27.033 21.6486L26.8939 21.6766ZM27.2833 22.1667C27.478 22.2647 27.7143 22.2507 27.909 22.1667L27.8395 22.0407C27.6865 22.1247 27.5058 22.1247 27.3389 22.0407L27.2833 22.1667ZM27.8951 22.1667L40.9108 16.5658L40.8552 16.4398L27.8395 22.0407L27.8951 22.1667ZM40.9108 16.5658C41.2446 16.4258 41.4114 16.0337 41.3002 15.6836L41.175 15.7256C41.2724 16.0057 41.1333 16.3137 40.8691 16.4258L40.9247 16.5518L40.9108 16.5658ZM37.6291 10.9508L34.8897 13.1072L34.9731 13.2192L37.7125 11.0629L37.6291 10.9508ZM35.0009 13.1492L34.5838 9.4806H34.4447L34.8619 13.1632H35.0009V13.1492ZM34.4864 9.53661L37.643 11.0489L37.6986 10.9228L34.542 9.41059L34.4864 9.53661ZM33.7216 13.2052L30.1061 11.4689L30.0505 11.595L33.666 13.3312L33.7216 13.2052ZM30.12 11.595L33.3044 9.55061L33.2349 9.43859L30.0505 11.4829L30.12 11.595ZM33.1932 9.4946L33.6243 13.2752H33.7633L33.3322 9.4806H33.1932V9.4946ZM32.4423 8.44443L29.3552 10.4328L29.4247 10.5448L32.5118 8.55645L32.4423 8.44443ZM29.4665 10.4888L29.3969 6.98819H29.2579L29.3274 10.4888H29.4665ZM29.2996 7.0582L32.4562 8.57045L32.5118 8.44443L29.3552 6.93218L29.2996 7.0582ZM28.0064 6.87617L28.062 10.3627H28.201L28.1454 6.87617H28.0064ZM28.1732 10.3067L25.0166 7.94034L24.9332 8.05236L28.0898 10.4188L28.1732 10.3067ZM25.0027 8.05236L28.0898 6.94618L28.0481 6.82016L24.961 7.92634L25.0027 8.05236ZM24.7385 9.4666L28.0759 11.987L28.1593 11.875L24.822 9.35458L24.7385 9.4666ZM28.0481 11.917L27.2555 18.3721H27.3945L28.1871 11.931H28.0481V11.917ZM27.3945 18.3441L24.8498 9.36858L24.7107 9.41059L27.2555 18.3861L27.3945 18.3441ZM28.4931 19.7303L29.3691 12.5751H29.2301L28.354 19.7163H28.4931V19.7303ZM29.2718 12.6451L33.3601 14.6055L33.4157 14.4794L29.3274 12.5191L29.2718 12.6451ZM33.3322 14.4934L28.3679 19.6883L28.4653 19.7863L33.4296 14.5915L33.3322 14.4934ZM30.2174 19.7863L34.695 15.0955L34.5977 14.9975L30.12 19.6883L30.2174 19.7863ZM34.6255 15.1235L38.672 16.1457L38.6998 16.0057L34.6533 14.9835L34.6255 15.1235ZM38.6581 16.0197L30.1339 19.6883L30.1896 19.8143L38.7137 16.1457L38.6581 16.0197ZM35.877 14.1154L38.6025 11.973L38.5191 11.861L35.7935 14.0034L35.877 14.1154ZM38.4913 11.931L39.5898 15.0535L39.715 15.0115L38.6164 11.889L38.4913 11.931ZM39.6732 14.9555L35.8492 13.9894L35.8214 14.1294L39.6454 15.0955L39.6732 14.9555Z"
			fill="url(#paint3_linear_2265_34454)" />
		<path fill-rule="evenodd" clip-rule="evenodd"
			d="M34.3052 21.9699L33.1789 21.4238C32.4419 22.9921 30.5646 23.6642 29.0072 22.9221L28.4648 24.0563C30.0223 24.7984 30.6898 26.6887 29.9528 28.257L31.0791 28.8031C31.8161 27.2348 33.6934 26.5627 35.2508 27.3048L35.7931 26.1706C34.2357 25.4285 33.5682 23.5382 34.3052 21.9699ZM31.4824 26.4787C31.4128 25.7646 31.1625 25.0644 30.7732 24.4623C31.4824 24.3923 32.1777 24.1403 32.7756 23.7482C32.8451 24.4623 33.0954 25.1625 33.4848 25.7646C32.7756 25.8346 32.0803 26.0866 31.4824 26.4787Z"
			fill="url(#paint4_linear_2265_34454)" />
		<path
			d="M34.3052 21.9683L34.3747 21.9963L34.4025 21.9263L34.333 21.8983L34.3052 21.9683ZM33.1788 21.4222L33.2066 21.3522L33.1371 21.3242L33.1093 21.3942L33.1788 21.4222ZM29.0071 22.9205L29.0349 22.8505L28.9654 22.8225L28.9376 22.8925L29.0071 22.9205ZM28.4648 24.0547L28.3952 24.0267L28.3674 24.0967L28.437 24.1247L28.4648 24.0547ZM29.9527 28.2554L29.8832 28.2274L29.8553 28.2974L29.9249 28.3254L29.9527 28.2554ZM31.079 28.8015L31.0512 28.8715L31.1208 28.8995L31.1486 28.8295L31.079 28.8015ZM35.2507 27.3032L35.2229 27.3732L35.2925 27.4012L35.3203 27.3312L35.2507 27.3032ZM35.7931 26.169L35.8626 26.197L35.8904 26.127L35.8209 26.099L35.7931 26.169ZM31.4823 26.4771H31.4128V26.6031L31.5101 26.5331L31.4684 26.4771H31.4823ZM30.7731 24.4607V24.3907H30.648L30.7175 24.4887L30.7731 24.4467V24.4607ZM32.7755 23.7466H32.8451V23.6206L32.7477 23.6906L32.7894 23.7466H32.7755ZM33.4847 25.763V25.833H33.6099L33.5403 25.735L33.4847 25.777V25.763ZM34.333 21.8983L33.2066 21.3522L33.151 21.4782L34.2773 22.0243L34.333 21.8983ZM33.1093 21.3942C32.3862 22.9345 30.5506 23.5786 29.021 22.8505L28.9654 22.9765C30.5645 23.7466 32.4696 23.0605 33.2344 21.4502L33.1093 21.3942ZM28.9376 22.8925L28.3952 24.0267L28.5204 24.0827L29.0627 22.9485L28.9376 22.8925ZM28.437 24.1247C29.9666 24.8528 30.6062 26.7011 29.8832 28.2414L30.0083 28.2974C30.7731 26.6871 30.0917 24.7688 28.4926 23.9987L28.437 24.1247ZM29.9249 28.3254L31.0512 28.8715L31.1069 28.7455L29.9805 28.1994L29.9249 28.3254ZM31.1486 28.8295C31.8717 27.2892 33.7072 26.6451 35.2368 27.3732L35.2925 27.2472C33.6933 26.4771 31.7882 27.1632 31.0234 28.7735L31.1486 28.8295ZM35.3203 27.3312L35.8626 26.197L35.7374 26.141L35.1951 27.2752L35.3203 27.3312ZM35.8209 26.099C34.2913 25.3709 33.6516 23.5226 34.3747 21.9823L34.2495 21.9263C33.4847 23.5366 34.1661 25.4549 35.7653 26.225L35.8209 26.099ZM31.5518 26.4631C31.4823 25.735 31.232 25.0208 30.8287 24.4187L30.7175 24.5027C31.1069 25.0908 31.3432 25.777 31.4128 26.4911H31.5518V26.4631ZM30.7731 24.5027C31.4962 24.4327 32.2054 24.1807 32.8033 23.7746L32.7199 23.6626C32.1359 24.0547 31.4545 24.2927 30.7453 24.3627V24.5027H30.7731ZM32.7199 23.7186C32.7894 24.4467 33.0397 25.1609 33.443 25.763L33.5543 25.6789C33.1649 25.0908 32.9285 24.4047 32.859 23.6906H32.7199V23.7186ZM33.4986 25.6789C32.7755 25.749 32.0663 26.001 31.4684 26.4071L31.5518 26.5191C32.1359 26.127 32.8173 25.889 33.5264 25.819V25.6789H33.4986Z"
			fill="url(#paint5_linear_2265_34454)" />
		<path
			d="M45.5417 9.95724L25.1698 0.19761C24.8917 0.0715892 24.558 0.19761 24.4328 0.463655L24.1408 1.09376L13.1692 24.2956L12.8772 24.9257C12.7521 25.2058 12.8772 25.5418 13.1414 25.6679L33.5132 35.4275C33.7913 35.5535 34.1251 35.4275 34.2502 35.1614L34.5423 34.5313L45.5138 11.3295L45.8059 10.6994C45.931 10.4193 45.8059 10.0833 45.5417 9.95724ZM33.541 34.0553L33.4715 34.0272L33.402 33.9992L14.1704 24.7857L25.1976 1.44382L44.5543 10.7274L33.5271 34.0553H33.541Z"
			fill="url(#paint6_linear_2265_34454)" />
		<path fill-rule="evenodd" clip-rule="evenodd"
			d="M15.7968 5.7961L11.0967 4.26985C8.05133 3.28968 4.75569 4.67592 3.3234 7.54639L1.04287 12.1252C0.611794 12.9933 0.583982 14.0015 0.959436 14.8976L9.09426 34.0948C9.52534 35.103 10.6795 35.5651 11.6668 35.131L24.905 29.446C25.9062 29.012 26.3651 27.8498 25.934 26.8556L17.7992 7.63041C17.4238 6.74826 16.7007 6.07615 15.7968 5.7821"
			fill="white" />
		<path fill-rule="evenodd" clip-rule="evenodd"
			d="M25.9467 26.8571L17.7979 7.63193C17.4225 6.74978 16.6994 6.07767 15.7955 5.78362L11.0954 4.25737C9.85779 3.8513 8.57847 3.8513 7.39648 4.17336C14.697 7.15585 19.856 14.4091 19.856 22.8945C19.856 26.4511 18.9521 29.7836 17.3669 32.6821L24.9176 29.4336C25.9189 28.9995 26.3777 27.8373 25.9467 26.8431"
			fill="#E8F4FC" />
		<path fill-rule="evenodd" clip-rule="evenodd"
			d="M9.09303 4.43945C6.88203 4.43945 4.81008 5.67165 3.76715 7.772L1.48662 12.3508C1.12507 13.0929 1.09726 13.947 1.41709 14.7032L9.55192 33.9004C9.87175 34.6565 10.7339 35.0065 11.4848 34.6845L24.723 28.9995C25.4739 28.6775 25.8216 27.8093 25.5017 27.0532L17.353 7.82801C17.0332 7.08589 16.4213 6.51179 15.6426 6.25975L10.9425 4.7335C10.3306 4.53746 9.70488 4.43945 9.07913 4.43945H9.09303ZM10.9008 35.7907C9.94128 35.7907 9.03741 35.2306 8.63414 34.2924L0.513224 15.0952C0.0821483 14.0731 0.10996 12.9109 0.610564 11.9027L2.8911 7.32393C4.44853 4.21541 7.96667 2.73116 11.2623 3.79534L15.9624 5.32159C17.0054 5.65765 17.8397 6.42778 18.2708 7.43595L26.4195 26.6612C26.9479 27.9074 26.3639 29.3636 25.1263 29.9097L11.8881 35.5946C11.5821 35.7347 11.2484 35.7907 10.9286 35.7907H10.9008Z"
			fill="url(#paint7_linear_2265_34454)" />
		<path
			d="M3.76753 7.77177L3.58675 7.67375L3.76753 7.77177ZM1.48699 12.3505L1.66777 12.4486L1.48699 12.3505ZM1.41747 14.7029L1.22279 14.7869L1.41747 14.7029ZM9.55229 33.9001L9.35761 33.9841L9.55229 33.9001ZM11.4852 34.6843L11.5686 34.8803L11.4852 34.6843ZM24.7234 28.9993L24.8068 29.1953L24.7234 28.9993ZM25.5021 27.053L25.6968 26.969L25.5021 27.053ZM17.3534 7.82778L17.5481 7.74377L17.3534 7.82778ZM15.643 6.25952L15.7125 6.06349L15.643 6.25952ZM10.9429 4.73326L10.8733 4.9293L10.9429 4.73326ZM8.63451 34.2922L8.43984 34.3762L8.63451 34.2922ZM0.513596 15.095L0.318917 15.179L0.513596 15.095ZM0.610936 11.9025L0.79171 12.0005L0.610936 11.9025ZM2.89147 7.3237L2.71069 7.22568L2.89147 7.3237ZM11.2627 3.79511L11.3322 3.59908L11.2627 3.79511ZM15.9628 5.32136L15.8933 5.5174L15.9628 5.32136ZM18.2712 7.43572L18.4658 7.3517L18.2712 7.43572ZM26.4199 26.6609L26.2252 26.7449L26.4199 26.6609ZM25.1267 29.9095L25.0432 29.7134L25.1267 29.9095ZM11.8884 35.5944L11.805 35.3984L11.8884 35.5944ZM9.0934 4.22918C6.79896 4.22918 4.65749 5.50339 3.57285 7.67375L3.9483 7.85579C4.94951 5.83945 6.96583 4.63525 9.0934 4.63525V4.21518V4.22918ZM3.57285 7.67375L1.29231 12.2525L1.66777 12.4345L3.9483 7.85579L3.57285 7.67375ZM1.29231 12.2525C0.902955 13.0507 0.875144 13.9608 1.20888 14.7869L1.59824 14.6189C1.30622 13.9188 1.32013 13.1207 1.66777 12.4345L1.29231 12.2525ZM1.20888 14.7869L9.3437 33.9841L9.73306 33.8161L1.59824 14.6189L1.20888 14.7869ZM9.3437 33.9841C9.70525 34.8383 10.6926 35.2444 11.5547 34.8803L11.3878 34.4882C10.7482 34.7683 9.99727 34.4602 9.73306 33.8161L9.3437 33.9841ZM11.5547 34.8803L24.7929 29.1953L24.626 28.8033L11.3878 34.4882L11.5547 34.8803ZM24.7929 29.1953C25.6412 28.8313 26.0444 27.8371 25.6829 26.969L25.2935 27.137C25.5716 27.7811 25.2657 28.5372 24.626 28.8033L24.7929 29.1953ZM25.6829 26.969L17.5481 7.74377L17.1587 7.91179L25.3074 27.137L25.6968 26.969H25.6829ZM17.5481 7.74377C17.2143 6.94563 16.5329 6.32953 15.7125 6.06349L15.5874 6.46955C16.2965 6.69359 16.8667 7.22568 17.1587 7.91179L17.5481 7.74377ZM15.7125 6.06349L11.0124 4.53723L10.8872 4.9433L15.5874 6.46955L15.7125 6.06349ZM11.0124 4.53723C10.3727 4.3272 9.73306 4.22918 9.0934 4.22918V4.64925C9.69135 4.64925 10.2893 4.74727 10.8872 4.9293L11.0124 4.52323V4.53723ZM10.9011 35.5804C10.0251 35.5804 9.19074 35.0623 8.82919 34.2082L8.43984 34.3762C8.87091 35.3984 9.85822 36.0005 10.8872 36.0005V35.5804H10.9011ZM8.82919 34.2082L0.708276 15.011L0.318917 15.179L8.45374 34.3762L8.8431 34.2082H8.82919ZM0.708276 15.011C0.291105 14.0448 0.332822 12.9386 0.805615 12.0005L0.430162 11.8184C-0.0982539 12.8686 -0.126065 14.1008 0.332822 15.179L0.722181 15.011H0.708276ZM0.805615 12.0005L3.08615 7.42171L2.71069 7.23968L0.416256 11.8184L0.79171 12.0005H0.805615ZM3.08615 7.42171C4.58796 4.39721 8.00876 2.95497 11.2071 3.99114L11.3322 3.58507C7.93923 2.49289 4.30985 4.01915 2.71069 7.22568L3.08615 7.40771V7.42171ZM11.2071 3.99114L15.9072 5.5174L16.0323 5.11133L11.3322 3.58507L11.2071 3.99114ZM15.9072 5.5174C16.8945 5.83945 17.6871 6.56757 18.0904 7.51973L18.4797 7.3517C18.0209 6.28752 17.1448 5.47539 16.0462 5.11133L15.9211 5.5174H15.9072ZM18.0904 7.51973L26.2391 26.7449L26.6285 26.5769L18.4519 7.3657L18.0626 7.53373L18.0904 7.51973ZM26.2391 26.7449C26.7258 27.8931 26.1974 29.2233 25.0571 29.7134L25.224 30.1055C26.5728 29.5314 27.1986 27.9491 26.6285 26.5909L26.2391 26.7589V26.7449ZM25.0571 29.7134L11.8189 35.3984L11.9858 35.7904L25.224 30.1055L25.0571 29.7134ZM11.8189 35.3984C11.5269 35.5244 11.2349 35.5804 10.9429 35.5804V36.0005C11.2905 36.0005 11.6381 35.9305 11.9858 35.7904L11.8189 35.3984Z"
			fill="url(#paint8_linear_2265_34454)" />
		<path fill-rule="evenodd" clip-rule="evenodd"
			d="M9.05191 8.00949C8.73208 8.00949 8.39834 8.0795 8.09241 8.20552C7.49447 8.47157 7.02168 8.94765 6.78528 9.54975C6.53498 10.1658 6.54888 10.838 6.79919 11.4401C7.04949 12.0422 7.53619 12.5182 8.13413 12.7563C8.74598 13.0083 9.41345 12.9943 10.0114 12.7423C10.6093 12.4762 11.0821 12.0002 11.3185 11.3981C11.5688 10.782 11.5549 10.1098 11.3046 9.50774C11.0543 8.90564 10.5676 8.42956 9.95578 8.19152C9.66376 8.0655 9.34393 8.00949 9.038 8.00949H9.05191ZM9.05191 13.9465C8.62083 13.9465 8.18975 13.8625 7.77258 13.6944C6.92434 13.3444 6.25686 12.6863 5.89532 11.8461C5.53377 10.992 5.51986 10.0538 5.8675 9.19969C6.21515 8.34555 6.86871 7.67343 7.70306 7.30937C8.5513 6.94531 9.48298 6.93131 10.3312 7.28137C11.1795 7.63143 11.8469 8.28954 12.2085 9.12968C12.57 9.98382 12.584 10.922 12.2363 11.7761C11.8887 12.6303 11.2351 13.3024 10.4008 13.6664C9.96968 13.8485 9.51079 13.9465 9.05191 13.9465Z"
			fill="url(#paint9_linear_2265_34454)" />
		<path
			d="M8.0929 8.20568L8.00947 8.00964L8.0929 8.20568ZM6.78577 9.5499L6.59109 9.46589L6.78577 9.5499ZM6.79968 11.4402L6.99436 11.3562L6.79968 11.4402ZM8.13462 12.7564L8.21806 12.5604L8.13462 12.7564ZM10.0119 12.7424L10.0953 12.9385L10.0119 12.7424ZM11.319 11.3982L11.5137 11.4822L11.319 11.3982ZM11.3051 9.50789L11.4998 9.42388L11.3051 9.50789ZM9.95627 8.19167L9.87283 8.38771L9.95627 8.19167ZM7.75917 13.6946L7.8426 13.4986L7.75917 13.6946ZM5.85409 9.19984L5.65941 9.11583L5.85409 9.19984ZM7.68964 7.30953L7.77307 7.50556L7.68964 7.30953ZM10.3178 7.28152L10.2344 7.47756L10.3178 7.28152ZM12.1951 9.12983L12.3898 9.04582L12.1951 9.12983ZM10.3873 13.6666L10.3039 13.4706L10.3873 13.6666ZM9.03849 7.79961C8.67694 7.79961 8.3293 7.86962 7.99556 8.00964L8.16243 8.40171C8.44055 8.27569 8.74647 8.21968 9.03849 8.21968V7.79961ZM7.99556 8.00964C7.342 8.28969 6.84139 8.80778 6.56328 9.47989L6.95264 9.63392C7.17513 9.07382 7.60621 8.63975 8.14853 8.40171L7.98166 8.00964H7.99556ZM6.56328 9.47989C6.29907 10.138 6.31298 10.8801 6.59109 11.5382L6.98045 11.3702C6.74405 10.8101 6.74405 10.194 6.96654 9.63392L6.57718 9.47989H6.56328ZM6.59109 11.5382C6.8692 12.1963 7.38371 12.7004 8.05119 12.9665L8.20415 12.5744C7.64792 12.3504 7.21685 11.9163 6.98045 11.3702L6.59109 11.5382ZM8.05119 12.9665C8.71866 13.2325 9.44176 13.2185 10.0953 12.9385L9.92845 12.5464C9.37223 12.7844 8.77428 12.7844 8.20415 12.5604L8.05119 12.9525V12.9665ZM10.0953 12.9385C10.7489 12.6584 11.2495 12.1403 11.5137 11.4682L11.1243 11.3142C10.9019 11.8743 10.4708 12.3084 9.92845 12.5464L10.0953 12.9385ZM11.5137 11.4682C11.7779 10.8101 11.7779 10.082 11.4859 9.40988L11.0965 9.57791C11.3329 10.138 11.3329 10.7541 11.1104 11.3142L11.4998 11.4682H11.5137ZM11.4859 9.40988C11.2078 8.75177 10.6933 8.24768 10.0258 7.98164L9.87283 8.37371C10.4291 8.59774 10.8601 9.03182 11.0965 9.57791L11.4859 9.40988ZM10.0258 7.98164C9.70596 7.85562 9.37223 7.78561 9.03849 7.78561V8.20568C9.3166 8.20568 9.60862 8.26169 9.87283 8.37371L10.0258 7.98164ZM9.03849 13.7226C8.63523 13.7226 8.21806 13.6386 7.8287 13.4846L7.67573 13.8766C8.12072 14.0587 8.5796 14.1427 9.03849 14.1427V13.7226ZM7.8287 13.4846C7.02217 13.1625 6.39641 12.5464 6.06267 11.7483L5.67331 11.9163C6.04877 12.8124 6.75796 13.5126 7.66183 13.8766L7.81479 13.4846H7.8287ZM6.06267 11.7483C5.72894 10.9501 5.71503 10.068 6.03486 9.25585L5.6455 9.10183C5.28396 10.012 5.29786 11.0061 5.67331 11.9163L6.06267 11.7483ZM6.03486 9.25585C6.35469 8.44372 6.96654 7.81361 7.75917 7.47756L7.5923 7.08549C6.70234 7.46355 6.00705 8.17767 5.6455 9.08782L6.03486 9.24185V9.25585ZM7.75917 7.47756C8.55179 7.1415 9.42785 7.1275 10.2344 7.44955L10.3873 7.05749C9.48347 6.69343 8.49617 6.70743 7.5923 7.08549L7.75917 7.47756ZM10.2344 7.44955C11.0409 7.77161 11.6667 8.38771 12.0004 9.18584L12.3898 9.01781C12.0143 8.12166 11.3051 7.42155 10.4012 7.05749L10.2483 7.44955H10.2344ZM12.0004 9.18584C12.3341 9.98397 12.348 10.8661 12.0282 11.6783L12.4176 11.8323C12.7791 10.9221 12.7652 9.92796 12.3898 9.01781L12.0004 9.18584ZM12.0282 11.6783C11.7084 12.4904 11.0965 13.1065 10.3039 13.4566L10.4708 13.8486C11.3607 13.4706 12.056 12.7564 12.4176 11.8463L12.0282 11.6923V11.6783ZM10.3039 13.4566C9.90064 13.6386 9.46957 13.7226 9.03849 13.7226V14.1427C9.52519 14.1427 10.0119 14.0447 10.4708 13.8486L10.3039 13.4566Z"
			fill="url(#paint10_linear_2265_34454)" />
		<path fill-rule="evenodd" clip-rule="evenodd"
			d="M10.0952 11.3136C9.28869 11.3136 8.81589 10.9356 8.55168 10.6135C7.98155 9.89941 7.89812 8.75122 8.30138 7.39299C8.38482 7.12695 8.64902 6.98693 8.91323 7.05694C9.17744 7.14095 9.3165 7.407 9.24697 7.67304C8.94104 8.68121 8.96885 9.54935 9.3304 9.99743C9.52508 10.2355 9.83101 10.3615 10.2343 10.3195C11.7917 10.2075 14.0166 8.14912 15.0734 5.82473C15.8244 4.17246 15.7409 3.06627 15.4072 2.59019C15.2125 2.31015 14.8927 2.18412 14.4616 2.21213C13.4743 2.28214 12.1672 3.15029 11.0408 4.4665C10.86 4.67654 10.5541 4.70454 10.3455 4.52251C10.1369 4.34048 10.1091 4.03243 10.2899 3.8224C11.597 2.28214 13.1267 1.31598 14.3782 1.21796C15.1569 1.16195 15.7965 1.442 16.1998 2.0161C16.8395 2.95425 16.756 4.48051 15.9495 6.2308C14.7119 8.93325 12.2228 11.1456 10.2899 11.2856C10.2204 11.2856 10.1508 11.2856 10.0952 11.2856"
			fill="url(#paint11_linear_2265_34454)" />
		<path
			d="M10.0952 11.3136C9.28869 11.3136 8.81589 10.9356 8.55168 10.6135C7.98155 9.89941 7.89812 8.75122 8.30138 7.39299C8.38482 7.12695 8.64902 6.98693 8.91323 7.05694C9.17744 7.14095 9.3165 7.407 9.24697 7.67304C8.94104 8.68121 8.96885 9.54935 9.3304 9.99743C9.52508 10.2355 9.83101 10.3615 10.2343 10.3195C11.7917 10.2075 14.0166 8.14912 15.0734 5.82473C15.8244 4.17246 15.7409 3.06627 15.4072 2.59019C15.2125 2.31015 14.8927 2.18412 14.4616 2.21213C13.4743 2.28214 12.1672 3.15029 11.0408 4.4665C10.86 4.67654 10.5541 4.70454 10.3455 4.52251C10.1369 4.34048 10.1091 4.03243 10.2899 3.8224C11.597 2.28214 13.1267 1.31598 14.3782 1.21796C15.1569 1.16195 15.7965 1.442 16.1998 2.0161C16.8395 2.95425 16.756 4.48051 15.9495 6.2308C14.7119 8.93325 12.2228 11.1456 10.2899 11.2856C10.2204 11.2856 10.1508 11.2856 10.0952 11.2856"
			stroke="url(#paint12_linear_2265_34454)" stroke-width="0.3" />
		<path fill-rule="evenodd" clip-rule="evenodd"
			d="M11.5974 31.2247C11.5974 31.2247 11.4722 31.2247 11.4166 31.1827C11.1663 31.0846 11.0412 30.7906 11.1385 30.5385L16.9928 15.8641C17.0901 15.6121 17.3822 15.486 17.6325 15.5841C17.8828 15.6821 18.0079 15.9761 17.9106 16.2282L12.0563 30.9026C11.9728 31.0986 11.7921 31.2107 11.5974 31.2107"
			fill="url(#paint13_linear_2265_34454)" />
		<path
			d="M11.5974 31.2247C11.5974 31.2247 11.4722 31.2247 11.4166 31.1827C11.1663 31.0846 11.0412 30.7906 11.1385 30.5385L16.9928 15.8641C17.0901 15.6121 17.3822 15.486 17.6325 15.5841C17.8828 15.6821 18.0079 15.9761 17.9106 16.2282L12.0563 30.9026C11.9728 31.0986 11.7921 31.2107 11.5974 31.2107"
			stroke="url(#paint14_linear_2265_34454)" stroke-width="0.3" />
		<path fill-rule="evenodd" clip-rule="evenodd"
			d="M11.6663 20.7227C12.0974 21.7309 11.6246 22.9071 10.6233 23.3411C9.62214 23.7752 8.45406 23.2991 8.02299 22.291C7.59191 21.2828 8.0647 20.1066 9.06591 19.6725C10.0671 19.2385 11.2352 19.7145 11.6663 20.7227Z"
			fill="white" />
		<path fill-rule="evenodd" clip-rule="evenodd"
			d="M9.83045 19.9958C9.63577 19.9958 9.44109 20.0378 9.24641 20.1219C8.4955 20.4439 8.13395 21.3261 8.45378 22.0962C8.60675 22.4603 8.89877 22.7543 9.27422 22.8943C9.64967 23.0484 10.0529 23.0343 10.4145 22.8943C10.776 22.7403 11.0681 22.4462 11.221 22.0682C11.374 21.6901 11.3601 21.2841 11.221 20.92C10.9846 20.3459 10.4284 20.0098 9.84435 20.0098L9.83045 19.9958ZM9.83045 23.9865C9.52452 23.9865 9.20469 23.9305 8.91267 23.8045C8.30082 23.5524 7.81412 23.0764 7.56382 22.4743C7.0354 21.214 7.61944 19.7438 8.87095 19.2117C10.1225 18.6656 11.5826 19.2677 12.111 20.5279C12.3752 21.144 12.3752 21.8161 12.1249 22.4322C11.8746 23.0484 11.4018 23.5384 10.8038 23.7905C10.4979 23.9305 10.1642 23.9865 9.83045 23.9865Z"
			fill="url(#paint15_linear_2265_34454)" />
		<path
			d="M9.24554 20.1206L9.16211 19.9246L9.24554 20.1206ZM8.45292 22.095L8.25824 22.179L8.45292 22.095ZM9.27336 22.8931L9.35679 22.6971L9.27336 22.8931ZM10.4136 22.8931L10.4971 23.0891L10.4136 22.8931ZM11.2201 22.067L11.4148 22.151L11.2201 22.067ZM11.2201 20.9188L11.0255 21.0028L11.2201 20.9188ZM8.92571 23.8173L9.00915 23.6212L8.92571 23.8173ZM7.57686 22.487L7.38218 22.5711L7.57686 22.487ZM8.884 19.2245L8.80056 19.0285L8.884 19.2245ZM12.124 20.5407L12.3187 20.4567L12.124 20.5407ZM10.8169 23.8033L10.7335 23.6072L10.8169 23.8033ZM9.84349 19.7986C9.621 19.7986 9.39851 19.8406 9.17602 19.9386L9.34288 20.3307C9.50975 20.2607 9.67662 20.2327 9.84349 20.2327V19.8126V19.7986ZM9.17602 19.9386C8.31386 20.3167 7.9106 21.3108 8.28605 22.193L8.67541 22.025C8.3973 21.3669 8.70322 20.6107 9.35679 20.3307L9.18992 19.9386H9.17602ZM8.28605 22.193C8.46683 22.6131 8.80056 22.9351 9.21773 23.1031L9.37069 22.7111C9.05086 22.5851 8.80056 22.333 8.67541 22.025L8.28605 22.193ZM9.21773 23.1031C9.6349 23.2712 10.1077 23.2712 10.5249 23.1031L10.358 22.7111C10.0382 22.8511 9.69053 22.8511 9.37069 22.7111L9.21773 23.1031ZM10.5249 23.1031C10.942 22.9211 11.2619 22.5851 11.4426 22.165L11.0533 22.011C10.9281 22.333 10.6778 22.5851 10.3719 22.7111L10.5388 23.1031H10.5249ZM11.4426 22.165C11.6095 21.7449 11.6095 21.2688 11.4287 20.8488L11.0394 21.0168C11.1784 21.3389 11.1784 21.6889 11.0394 22.011L11.4287 22.165H11.4426ZM11.4287 20.8488C11.1506 20.2047 10.5249 19.8126 9.85739 19.8126V20.2327C10.358 20.2327 10.8308 20.5267 11.0394 21.0168L11.4287 20.8488ZM9.8713 23.8033C9.57928 23.8033 9.30117 23.7473 9.02305 23.6352L8.87009 24.0273C9.18992 24.1533 9.53756 24.2233 9.8713 24.2233V23.8033ZM9.02305 23.6352C8.46683 23.4112 8.02184 22.9771 7.78545 22.417L7.39609 22.5851C7.6742 23.2432 8.20262 23.7613 8.87009 24.0273L9.02305 23.6352ZM7.78545 22.417C7.29875 21.2548 7.82716 19.9246 8.98134 19.4205L8.81447 19.0285C7.45171 19.6166 6.82596 21.1988 7.39609 22.5711L7.78545 22.403V22.417ZM8.98134 19.4205C10.1355 18.9304 11.4705 19.4625 11.9572 20.6247L12.3465 20.4567C11.7625 19.0845 10.1911 18.4404 8.82837 19.0285L8.99524 19.4205H8.98134ZM11.9572 20.6247C12.1935 21.1848 12.2075 21.8009 11.9711 22.375L12.3604 22.5291C12.6246 21.8569 12.6246 21.1288 12.3326 20.4567L11.9432 20.6247H11.9572ZM11.9711 22.375C11.7486 22.9351 11.3175 23.3832 10.7613 23.6212L10.9281 24.0133C11.5817 23.7333 12.0962 23.2012 12.3604 22.5431L11.9711 22.389V22.375ZM10.7613 23.6212C10.4692 23.7473 10.1772 23.8033 9.8713 23.8033V24.2233C10.2328 24.2233 10.5805 24.1533 10.9281 23.9993L10.7613 23.6072V23.6212Z"
			fill="url(#paint16_linear_2265_34454)" />
		<path fill-rule="evenodd" clip-rule="evenodd"
			d="M21.0237 24.5176C21.4548 25.5258 20.982 26.702 19.9808 27.1361C18.9796 27.5701 17.8115 27.0941 17.3804 26.0859C16.9493 25.0777 17.4221 23.9015 18.4233 23.4675C19.4245 23.0334 20.5926 23.5095 21.0237 24.5176Z"
			fill="white" />
		<path fill-rule="evenodd" clip-rule="evenodd"
			d="M19.2037 23.7888C19.009 23.7888 18.8144 23.8308 18.6197 23.9148C17.8688 24.2369 17.5072 25.119 17.8271 25.8892C18.1469 26.6453 19.023 27.0093 19.7878 26.6873C20.5387 26.3652 20.9002 25.4831 20.5804 24.713C20.344 24.1389 19.7878 23.8028 19.2037 23.8028V23.7888ZM19.2037 27.7795C18.2442 27.7795 17.3265 27.2054 16.9232 26.2672C16.3948 25.007 16.9788 23.5368 18.2303 23.0047C19.4818 22.4586 20.9419 23.0607 21.4704 24.3209C22.0127 25.5811 21.4147 27.0514 20.1632 27.5834C19.8434 27.7235 19.5236 27.7795 19.1898 27.7795H19.2037Z"
			fill="url(#paint17_linear_2265_34454)" />
		<path
			d="M18.6191 23.9156L18.5356 23.7195L18.6191 23.9156ZM17.8264 25.8899L17.6318 25.9739L17.8264 25.8899ZM19.7871 26.688L19.8706 26.8841L19.7871 26.688ZM20.5798 24.7137L20.3851 24.7977L20.5798 24.7137ZM16.9365 26.282L17.1311 26.198L16.9365 26.282ZM18.2436 23.0194L18.327 23.2155L18.2436 23.0194ZM21.4836 24.3356L21.2889 24.4197L21.4836 24.3356ZM20.1765 27.5982L20.0931 27.4022L20.1765 27.5982ZM19.2031 23.5935C18.9806 23.5935 18.7581 23.6355 18.5356 23.7335L18.7025 24.1256C18.8694 24.0556 19.0362 24.0276 19.2031 24.0276V23.6075V23.5935ZM18.5356 23.7335C17.6735 24.1116 17.2702 25.1198 17.6457 25.9879L18.035 25.8199C17.7569 25.1618 18.0628 24.4057 18.7164 24.1256L18.5495 23.7335H18.5356ZM17.6457 25.9879C18.0211 26.8561 19.0223 27.2621 19.8706 26.8981L19.7037 26.506C19.0501 26.7861 18.2992 26.478 18.0211 25.8199L17.6318 25.9879H17.6457ZM19.8845 26.8981C20.7466 26.534 21.1499 25.5118 20.7744 24.6437L20.3851 24.8117C20.6632 25.4698 20.3573 26.226 19.7037 26.506L19.8706 26.8981H19.8845ZM20.7744 24.6437C20.4963 23.9856 19.8706 23.6075 19.2031 23.6075V24.0276C19.7037 24.0276 20.1765 24.3216 20.3851 24.8117L20.7744 24.6437ZM19.217 27.5982C18.3409 27.5982 17.4927 27.0801 17.1311 26.212L16.7418 26.38C17.1729 27.4022 18.1741 28.0183 19.217 28.0183V27.5982ZM17.1311 26.212C16.6445 25.0498 17.1729 23.7195 18.327 23.2155L18.1602 22.8234C16.7974 23.4115 16.1717 24.9938 16.7418 26.366L17.1311 26.198V26.212ZM18.327 23.2155C19.4812 22.7254 20.8162 23.2575 21.3029 24.4197L21.6922 24.2516C21.1082 22.8794 19.5368 22.2353 18.1741 22.8234L18.3409 23.2155H18.327ZM21.3029 24.4197C21.7896 25.5818 21.2611 26.9121 20.107 27.4162L20.2738 27.8082C21.6366 27.2201 22.2623 25.6379 21.6922 24.2656L21.3029 24.4337V24.4197ZM20.107 27.4162C19.8149 27.5422 19.5229 27.5982 19.217 27.5982V28.0183C19.5646 28.0183 19.9262 27.9482 20.2599 27.8082L20.0931 27.4162H20.107Z"
			fill="url(#paint18_linear_2265_34454)" />
	</g>
	<defs>
		<linearGradient id="paint0_linear_2265_34454" x1="6.96825" y1="25.8044" x2="48.3049"
			y2="11.2351" gradientUnits="userSpaceOnUse">
			<stop stop-color="#181A48" />
			<stop offset="1" stop-color="#729CD2" />
		</linearGradient>
		<linearGradient id="paint1_linear_2265_34454" x1="8.87619" y1="25.0586" x2="46.7358"
			y2="11.7252" gradientUnits="userSpaceOnUse">
			<stop stop-color="#181A48" />
			<stop offset="1" stop-color="#729CD2" />
		</linearGradient>
		<linearGradient id="paint2_linear_2265_34454" x1="24.3228" y1="15.7794" x2="42.695"
			y2="6.67531" gradientUnits="userSpaceOnUse">
			<stop stop-color="#181A48" />
			<stop offset="1" stop-color="#729CD2" />
		</linearGradient>
		<linearGradient id="paint3_linear_2265_34454" x1="24.323" y1="15.779" x2="42.6952"
			y2="6.67492" gradientUnits="userSpaceOnUse">
			<stop stop-color="#181A48" />
			<stop offset="1" stop-color="#729CD2" />
		</linearGradient>
		<linearGradient id="paint4_linear_2265_34454" x1="28.272" y1="26.4805" x2="36.5876"
			y2="23.5496" gradientUnits="userSpaceOnUse">
			<stop stop-color="#181A48" />
			<stop offset="1" stop-color="#729CD2" />
		</linearGradient>
		<linearGradient id="paint5_linear_2265_34454" x1="28.272" y1="26.4789" x2="36.5875"
			y2="23.548" gradientUnits="userSpaceOnUse">
			<stop stop-color="#181A48" />
			<stop offset="1" stop-color="#729CD2" />
		</linearGradient>
		<linearGradient id="paint6_linear_2265_34454" x1="7.13555" y1="25.7462" x2="48.1567"
			y2="11.2881" gradientUnits="userSpaceOnUse">
			<stop stop-color="#181A48" />
			<stop offset="1" stop-color="#729CD2" />
		</linearGradient>
		<linearGradient id="paint7_linear_2265_34454" x1="0.735715" y1="10.2504" x2="26.9963"
			y2="31.6916" gradientUnits="userSpaceOnUse">
			<stop stop-color="#181A48" />
			<stop offset="1" stop-color="#729CD2" />
		</linearGradient>
		<linearGradient id="paint8_linear_2265_34454" x1="0.736088" y1="10.2502" x2="26.9967"
			y2="31.6913" gradientUnits="userSpaceOnUse">
			<stop stop-color="#181A48" />
			<stop offset="1" stop-color="#729CD2" />
		</linearGradient>
		<linearGradient id="paint9_linear_2265_34454" x1="6.40983" y1="7.81346" x2="12.1367"
			y2="13.5147" gradientUnits="userSpaceOnUse">
			<stop stop-color="#181A48" />
			<stop offset="1" stop-color="#729CD2" />
		</linearGradient>
		<linearGradient id="paint10_linear_2265_34454" x1="6.41032" y1="7.81361" x2="12.1372"
			y2="13.5149" gradientUnits="userSpaceOnUse">
			<stop stop-color="#181A48" />
			<stop offset="1" stop-color="#729CD2" />
		</linearGradient>
		<linearGradient id="paint11_linear_2265_34454" x1="8.53778" y1="2.98226" x2="16.7901"
			y2="9.99696" gradientUnits="userSpaceOnUse">
			<stop stop-color="#181A48" />
			<stop offset="1" stop-color="#729CD2" />
		</linearGradient>
		<linearGradient id="paint12_linear_2265_34454" x1="8.53778" y1="2.98226" x2="16.7901"
			y2="9.99696" gradientUnits="userSpaceOnUse">
			<stop stop-color="#181A48" />
			<stop offset="1" stop-color="#729CD2" />
		</linearGradient>
		<linearGradient id="paint13_linear_2265_34454" x1="10.1095" y1="21.451" x2="19.6282"
			y2="25.6032" gradientUnits="userSpaceOnUse">
			<stop stop-color="#181A48" />
			<stop offset="1" stop-color="#729CD2" />
		</linearGradient>
		<linearGradient id="paint14_linear_2265_34454" x1="10.1095" y1="21.451" x2="19.6282"
			y2="25.6032" gradientUnits="userSpaceOnUse">
			<stop stop-color="#181A48" />
			<stop offset="1" stop-color="#729CD2" />
		</linearGradient>
		<linearGradient id="paint15_linear_2265_34454" x1="7.93927" y1="19.5898" x2="12.0699"
			y2="23.6919" gradientUnits="userSpaceOnUse">
			<stop stop-color="#181A48" />
			<stop offset="1" stop-color="#729CD2" />
		</linearGradient>
		<linearGradient id="paint16_linear_2265_34454" x1="7.93841" y1="19.5886" x2="12.069"
			y2="23.6906" gradientUnits="userSpaceOnUse">
			<stop stop-color="#181A48" />
			<stop offset="1" stop-color="#729CD2" />
		</linearGradient>
		<linearGradient id="paint17_linear_2265_34454" x1="17.2986" y1="23.3827" x2="21.4292"
			y2="27.4848" gradientUnits="userSpaceOnUse">
			<stop stop-color="#181A48" />
			<stop offset="1" stop-color="#729CD2" />
		</linearGradient>
		<linearGradient id="paint18_linear_2265_34454" x1="17.298" y1="23.3835" x2="21.4286"
			y2="27.4856" gradientUnits="userSpaceOnUse">
			<stop stop-color="#181A48" />
			<stop offset="1" stop-color="#729CD2" />
		</linearGradient>
		<clipPath id="clip0_2265_34454">
			<rect width="46" height="36" fill="white" />
		</clipPath>
	</defs>
</svg>