<svg width="85" height="36" viewBox="0 0 85 36" fill="none" xmlns="http://www.w3.org/2000/svg">
<path d="M9.286 33.5137V26.9487L6.621 33.5137H5.971L3.319 26.9487V33.5137H1.798V24.8427H3.943L6.296 30.6797L8.662 24.8427H10.807V33.5137H9.286ZM12.6525 33.5137V24.8427H18.5935V26.1817H14.1735V28.4307H18.5025V29.7697H14.1735V32.1747H18.5935V33.5137H12.6525ZM25.1084 33.5137L23.1844 30.2767H21.6764V33.5137H20.1554V24.8427H23.9644C25.6804 24.8427 26.7984 25.9607 26.7984 27.5597C26.7984 29.1067 25.7844 29.9387 24.7444 30.1077L26.8634 33.5137H25.1084ZM25.2384 27.5597C25.2384 26.7277 24.6144 26.1817 23.7564 26.1817H21.6764V28.9377H23.7564C24.6144 28.9377 25.2384 28.3917 25.2384 27.5597ZM32.4135 33.6697C29.9175 33.6697 27.9285 31.8497 27.9285 29.1847C27.9285 26.5197 29.9175 24.6997 32.4135 24.6997C34.2335 24.6997 35.3125 25.6097 35.9625 26.6497L34.6625 27.3127C34.2465 26.5977 33.4145 26.0517 32.4135 26.0517C30.7625 26.0517 29.4885 27.3647 29.4885 29.1847C29.4885 31.0047 30.7625 32.3177 32.4135 32.3177C33.4145 32.3177 34.2465 31.7847 34.6625 31.0567L35.9625 31.7197C35.2995 32.7597 34.2335 33.6697 32.4135 33.6697ZM43.2118 33.5137V29.7307H38.7008V33.5137H37.1798V24.8427H38.7008V28.3917H43.2118V24.8427H44.7328V33.5137H43.2118ZM52.7104 33.5137L52.0734 31.8497H47.9654L47.3284 33.5137H45.6644L49.0704 24.8427H50.9684L54.3744 33.5137H52.7104ZM50.0194 26.1297L48.3944 30.5107H51.6444L50.0194 26.1297ZM61.3664 33.5137L56.8424 27.1957V33.5137H55.3214V24.8427H56.8814L61.3144 30.9917V24.8427H62.8354V33.5137H61.3664ZM66.7449 33.5137V26.1817H64.1189V24.8427H70.8919V26.1817H68.2659V33.5137H66.7449Z" fill="#354052"/>
<mask id="mask0_6_1737" style="mask-type:alpha" maskUnits="userSpaceOnUse" x="67" y="4" width="18" height="15">
<path fill-rule="evenodd" clip-rule="evenodd" d="M67.7793 4.38892H84.0098V18.0062H67.7793V4.38892Z" fill="white"/>
</mask>
<g mask="url(#mask0_6_1737)">
<path fill-rule="evenodd" clip-rule="evenodd" d="M77.3624 9.60886V4.38892H73.7365V9.60886H67.7793V12.7862H73.7365V18.0062H77.3624V12.7862H80.3838C82.3865 12.7862 84.01 11.3635 84.01 9.60886H77.3624Z" fill="#F1AB3F"/>
</g>
<mask id="mask1_6_1737" style="mask-type:alpha" maskUnits="userSpaceOnUse" x="2" y="0" width="64" height="21">
<path fill-rule="evenodd" clip-rule="evenodd" d="M56.9973 1.86084C59.6265 1.86084 62.4946 2.66081 64.7257 3.94789L64.2764 4.65035C63.5049 5.8572 61.8288 6.37163 60.3567 5.86288C59.1282 5.43852 57.931 5.19999 56.8778 5.19999C55.0053 5.19999 53.9299 5.96498 53.9299 7.04349V7.11301C53.9299 8.32748 55.8472 8.89579 58.0745 9.51978L58.2718 9.575C58.3048 9.58424 58.3378 9.59349 58.3709 9.60275L58.5702 9.65861C58.6035 9.66796 58.6368 9.67734 58.6702 9.68674C58.8542 9.73682 59.0397 9.78828 59.2258 9.84149L59.4121 9.8953C62.27 10.7296 65.2034 12.0034 65.2034 15.0432V15.1127C65.2034 18.9737 61.7777 20.8868 57.3957 20.8868C54.4079 20.8868 51.1013 19.9475 48.4721 18.1388L48.9504 17.505C49.8193 16.353 51.5338 15.9363 52.9528 16.5426C54.5128 17.2092 56.0846 17.5476 57.5151 17.5476C59.5864 17.5476 60.7818 16.7824 60.7818 15.5651V15.4953C60.7818 14.1069 58.6666 13.6088 56.2755 12.9734L56.0811 12.9216C52.9738 12.1564 49.508 11.0433 49.508 7.53038V7.46064C49.508 3.98243 52.8143 1.86084 56.9973 1.86084ZM45.0739 2.17392V20.5389H40.2539V6.38257C40.2539 4.05809 42.4119 2.17392 45.0739 2.17392ZM36.9275 1.82609V6.2783H36.6486C32.4258 6.2783 29.4781 8.67821 29.4781 13.5476V16.3301C29.4781 18.6546 27.3199 20.5389 24.6576 20.5389V2.17393H29.4781V6.31284C30.7927 3.5653 33.2226 1.68682 36.9275 1.82609ZM2.04297 0.0695801C4.70523 0.0695801 6.86319 1.95374 6.86319 4.27823V10.3129L15.5874 2.1739H21.4436L13.0776 9.65196L21.7222 20.5389H19.1349C17.2616 20.5389 15.5065 19.7394 14.4351 18.3976L9.81116 12.6085L6.86319 15.2867V20.5389H2.04297V0.0695801Z" fill="white"/>
</mask>
<g mask="url(#mask1_6_1737)">
<path fill-rule="evenodd" clip-rule="evenodd" d="M2.04297 27.9848H84.3085V0.0695801H2.04297V27.9848Z" fill="url(#paint0_linear_6_1737)"/>
</g>
<defs>
<linearGradient id="paint0_linear_6_1737" x1="36.542" y1="31.5734" x2="47.6162" y2="-5.8137" gradientUnits="userSpaceOnUse">
<stop stop-color="#141530"/>
<stop offset="1" stop-color="#6D95C1"/>
</linearGradient>
</defs>
</svg>
