<svg width="513" height="512" viewBox="0 0 513 512" fill="none" xmlns="http://www.w3.org/2000/svg">
<rect width="512" height="512" transform="translate(0.797852)" fill="white"/>
<path d="M366.58 333.277V299.308H354.458V293.105H385.721V299.308H373.6V333.277H366.58Z" fill="#354052"/>
<path d="M341.751 333.277L320.869 304.006V333.277H313.849V293.105H321.049L341.511 321.593V293.105H348.532V333.277H341.751Z" fill="#354052"/>
<path d="M301.799 333.277L298.858 325.568H279.897L276.957 333.277H269.276L284.997 293.105H293.758L309.479 333.277H301.799ZM289.378 299.067L281.877 319.364H296.878L289.378 299.067Z" fill="#354052"/>
<path d="M257.956 333.277V315.751H237.134V333.277H230.114V293.105H237.134V309.547H257.956V293.105H264.977V333.277H257.956Z" fill="#354052"/>
<path d="M208.112 334C196.591 334 187.41 325.568 187.41 313.221C187.41 300.874 196.591 292.442 208.112 292.442C216.513 292.442 221.493 296.658 224.493 301.476L218.493 304.548C216.573 301.235 212.732 298.706 208.112 298.706C200.491 298.706 194.611 304.789 194.611 313.221C194.611 321.653 200.491 327.736 208.112 327.736C212.732 327.736 216.573 325.267 218.493 321.894L224.493 324.965C221.433 329.784 216.513 334 208.112 334Z" fill="#354052"/>
<path d="M174.392 333.277L165.511 318.28H158.55V333.277H151.53V293.105H169.111C177.032 293.105 182.192 298.284 182.192 305.692C182.192 312.86 177.512 316.714 172.712 317.497L182.492 333.277H174.392ZM174.992 305.692C174.992 301.838 172.112 299.308 168.151 299.308H158.55V312.077H168.151C172.112 312.077 174.992 309.547 174.992 305.692Z" fill="#354052"/>
<path d="M116.9 333.277V293.105H144.322V299.308H123.921V309.728H143.902V315.931H123.921V327.074H144.322V333.277H116.9Z" fill="#354052"/>
<path d="M101.361 333.277V302.862L89.0598 333.277H86.0595L73.8185 302.862V333.277H66.7979V293.105H76.6987L87.5596 320.147L98.4806 293.105H108.381V333.277H101.361Z" fill="#354052"/>
<mask id="mask0_34_386" style="mask-type:alpha" maskUnits="userSpaceOnUse" x="371" y="198" width="76" height="64">
<path fill-rule="evenodd" clip-rule="evenodd" d="M371.353 198.333H446.269V261.422H371.353V198.333Z" fill="white"/>
</mask>
<g mask="url(#mask0_34_386)">
<path fill-rule="evenodd" clip-rule="evenodd" d="M415.586 222.517V198.333H398.85V222.517H371.353V237.238H398.85V261.422H415.586V237.238H429.532C438.776 237.238 446.27 230.647 446.27 222.517H415.586" fill="#F1AB3F"/>
</g>
<mask id="mask1_34_386" style="mask-type:alpha" maskUnits="userSpaceOnUse" x="67" y="178" width="293" height="97">
<path fill-rule="evenodd" clip-rule="evenodd" d="M321.585 186.621C333.721 186.621 346.959 190.327 357.257 196.29L355.184 199.545C351.623 205.136 343.886 207.519 337.091 205.162C331.421 203.196 325.895 202.091 321.033 202.091C312.39 202.091 307.426 205.635 307.426 210.632V210.954C307.426 216.581 316.276 219.214 326.557 222.105L327.468 222.36C327.62 222.403 327.773 222.446 327.925 222.489L328.845 222.748C328.999 222.791 329.153 222.835 329.307 222.878C330.156 223.11 331.012 223.349 331.871 223.595L332.731 223.844C345.922 227.71 359.463 233.611 359.463 247.694V248.017C359.463 265.905 343.65 274.768 323.424 274.768C309.633 274.768 294.37 270.416 282.235 262.036L284.442 259.1C288.453 253.763 296.366 251.832 302.916 254.641C310.117 257.729 317.372 259.297 323.975 259.297C333.536 259.297 339.053 255.752 339.053 250.112V249.789C339.053 243.357 329.29 241.049 318.253 238.105L317.356 237.865V237.865C303.013 234.32 287.016 229.163 287.016 212.888V212.565C287.016 196.45 302.277 186.621 321.585 186.621ZM266.549 188.071V273.156H244.301V207.57C244.301 196.801 254.262 188.071 266.549 188.071ZM228.948 186.46V207.087H227.66C208.169 207.087 194.563 218.206 194.563 240.765V253.656C194.563 264.426 184.601 273.156 172.312 273.156V188.071H194.563V207.247C200.631 194.518 211.846 185.815 228.948 186.46ZM67.9277 178.322C80.2162 178.322 90.1768 187.051 90.1768 197.821V225.779L130.446 188.071H157.477L118.861 222.717L158.763 273.156H146.82C138.174 273.156 130.073 269.452 125.127 263.236L103.784 236.415L90.1768 248.823V273.156H67.9277V178.322Z" fill="white"/>
</mask>
<g mask="url(#mask1_34_386)">
<path fill-rule="evenodd" clip-rule="evenodd" d="M67.9277 307.653H447.647V178.322H67.9277V307.653Z" fill="url(#paint0_linear_34_386)"/>
</g>
<defs>
<linearGradient id="paint0_linear_34_386" x1="227.168" y1="324.278" x2="278.634" y2="151.169" gradientUnits="userSpaceOnUse">
<stop stop-color="#141530"/>
<stop offset="1" stop-color="#6D95C1"/>
</linearGradient>
</defs>
</svg>
