<svg width="36" height="36" viewBox="0 0 36 36" fill="none" xmlns="http://www.w3.org/2000/svg">
<path fill-rule="evenodd" clip-rule="evenodd" d="M21 15H30V6H21V15Z" fill="white"/>
<path fill-rule="evenodd" clip-rule="evenodd" d="M6 15H15V6H6V15Z" fill="white"/>
<path fill-rule="evenodd" clip-rule="evenodd" d="M6 30H15V21H6V30Z" fill="white"/>
<path fill-rule="evenodd" clip-rule="evenodd" d="M19.039 19.0384H21.1159V27.3461H19.039V19.0384ZM4.5 31.5V19.0384H16.961V31.5H4.5ZM6.57694 29.4231H14.8846V21.1154H6.57694V29.4231ZM19.039 29.4231H23.1929V31.5H19.0385L19.039 29.4231ZM29.4231 23.1923H31.5V25.2692H29.4231V23.1923ZM25.2692 19.0384H31.5V21.1154H25.2692V19.0384ZM31.5 4.5V16.9615H19.0385V4.5H31.5ZM21.1154 14.8846H29.4236V6.57694H21.1154V14.8846ZM4.5 16.9615V4.5H16.961V16.9615H4.5ZM6.57694 6.57694V14.8846H14.8846V6.57694H6.57694ZM29.4231 29.423V27.3461H31.5V31.5H25.2692V29.423H29.4231ZM23.1923 23.1923H25.2692V25.2692H27.3462V27.3462H23.1923V23.1923ZM8.65384 8.65387H12.8077V12.8077H8.65384V8.65387ZM23.1923 8.65387H27.3462V12.8077H23.1923V8.65387ZM8.65384 23.1923H12.8077V27.3462H8.65384V23.1923Z" fill="url(#paint0_linear_3_15)"/>
<defs>
<linearGradient id="paint0_linear_3_15" x1="-8.5396" y1="18.4635" x2="18.4604" y2="44.5427" gradientUnits="userSpaceOnUse">
<stop stop-color="#0F1749"/>
<stop offset="1" stop-color="#6F9DDC"/>
</linearGradient>
</defs>
</svg>
