<svg width="410" height="410" viewBox="0 0 410 410" fill="none" xmlns="http://www.w3.org/2000/svg">
<rect width="410" height="410" fill="white"/>
<path d="M285.314 261.534V236.683H276.446V232.145H299.317V236.683H290.45V261.534H285.314Z" fill="#354052"/>
<path d="M267.15 261.534L251.873 240.12V261.534H246.737V232.145H252.005L266.974 252.986V232.145H272.11V261.534H267.15Z" fill="#354052"/>
<path d="M237.921 261.534L235.77 255.894H221.898L219.747 261.534H214.128L225.63 232.145H232.039L243.54 261.534H237.921ZM228.834 236.507L223.347 251.356H234.322L228.834 236.507Z" fill="#354052"/>
<path d="M205.847 261.534V248.712H190.615V261.534H185.479V232.145H190.615V244.174H205.847V232.145H210.984V261.534H205.847Z" fill="#354052"/>
<path d="M169.382 262.063C160.954 262.063 154.237 255.894 154.237 246.862C154.237 237.829 160.954 231.66 169.382 231.66C175.528 231.66 179.172 234.744 181.367 238.269L176.977 240.517C175.572 238.093 172.762 236.243 169.382 236.243C163.807 236.243 159.505 240.693 159.505 246.862C159.505 253.03 163.807 257.48 169.382 257.48C172.762 257.48 175.572 255.674 176.977 253.206L181.367 255.454C179.128 258.979 175.528 262.063 169.382 262.063Z" fill="#354052"/>
<path d="M144.714 261.534L138.217 250.563H133.124V261.534H127.988V232.145H140.851C146.645 232.145 150.42 235.934 150.42 241.354C150.42 246.597 146.996 249.417 143.484 249.99L150.64 261.534H144.714ZM145.153 241.354C145.153 238.534 143.045 236.683 140.148 236.683H133.124V246.024H140.148C143.045 246.024 145.153 244.174 145.153 241.354Z" fill="#354052"/>
<path d="M102.654 261.534V232.145H122.715V236.683H107.79V244.306H122.408V248.844H107.79V256.996H122.715V261.534H102.654Z" fill="#354052"/>
<path d="M91.2855 261.534V239.283L82.2863 261.534H80.0914L71.1361 239.283V261.534H66V232.145H73.2433L81.1889 251.929L89.1784 232.145H96.4217V261.534H91.2855Z" fill="#354052"/>
<mask id="mask0_36_411" style="mask-type:alpha" maskUnits="userSpaceOnUse" x="288" y="162" width="56" height="47">
<path fill-rule="evenodd" clip-rule="evenodd" d="M288.806 162.812H343.613V208.966H288.806V162.812Z" fill="white"/>
</mask>
<g mask="url(#mask0_36_411)">
<path fill-rule="evenodd" clip-rule="evenodd" d="M321.166 180.505V162.812H308.922V180.505H288.806V191.274H308.922V208.966H321.166V191.274H331.369C338.131 191.274 343.614 186.452 343.614 180.505H321.166" fill="#F1AB3F"/>
</g>
<mask id="mask1_36_411" style="mask-type:alpha" maskUnits="userSpaceOnUse" x="66" y="148" width="215" height="71">
<path fill-rule="evenodd" clip-rule="evenodd" d="M252.397 154.244C261.275 154.244 270.96 156.955 278.494 161.317L276.977 163.698C274.372 167.789 268.712 169.532 263.741 167.808C259.592 166.37 255.55 165.561 251.993 165.561C245.67 165.561 242.039 168.154 242.039 171.81V172.045C242.039 176.162 248.513 178.088 256.034 180.203L256.7 180.39C256.812 180.421 256.923 180.453 257.035 180.484L257.708 180.673C257.821 180.705 257.933 180.737 258.046 180.769C258.667 180.938 259.294 181.113 259.922 181.293L260.551 181.475C270.201 184.303 280.107 188.621 280.107 198.924V199.159C280.107 212.246 268.539 218.73 253.742 218.73C243.653 218.73 232.487 215.546 223.609 209.416L225.224 207.268C228.158 203.363 233.947 201.951 238.739 204.006C244.007 206.265 249.315 207.412 254.145 207.412C261.14 207.412 265.176 204.819 265.176 200.693V200.456C265.176 195.75 258.034 194.062 249.959 191.908L249.303 191.733V191.733C238.81 189.139 227.107 185.367 227.107 173.46V173.223C227.107 161.435 238.272 154.244 252.397 154.244ZM212.134 155.305V217.551H195.858V169.569C195.858 161.691 203.145 155.305 212.134 155.305ZM184.625 154.126V169.216H183.683C169.424 169.216 159.47 177.35 159.47 193.854V203.285C159.47 211.164 152.182 217.551 143.192 217.551V155.305H159.47V169.333C163.909 160.021 172.114 153.654 184.625 154.126ZM66.8267 148.172C75.8166 148.172 83.1036 154.559 83.1036 162.437V182.891L112.564 155.305H132.339L104.089 180.651L133.28 217.551H124.543C118.217 217.551 112.291 214.841 108.672 210.293L93.0584 190.672L83.1036 199.749V217.551H66.8267V148.172Z" fill="white"/>
</mask>
<g mask="url(#mask1_36_411)">
<path fill-rule="evenodd" clip-rule="evenodd" d="M66.8267 242.788H344.621V148.172H66.8267V242.788Z" fill="url(#paint0_linear_36_411)"/>
</g>
<defs>
<linearGradient id="paint0_linear_36_411" x1="183.323" y1="254.951" x2="220.975" y2="128.308" gradientUnits="userSpaceOnUse">
<stop stop-color="#141530"/>
<stop offset="1" stop-color="#6D95C1"/>
</linearGradient>
</defs>
</svg>
